<svg xmlns="http://www.w3.org/2000/svg" viewBox="0 0 32 32">
  <rect width="32" height="32" rx="4" fill="#004539"/>
  <g fill="#ddad75" transform="translate(16,17)">
    <!-- Left upper arm: sweeps up-left, tip curls -->
    <path d="M0,-3 C-1,-5 -4,-9 -7,-11 C-8.5,-12.5 -9,-14 -7.5,-14.5 C-6,-15 -4.5,-13.5 -4,-11.5 C-3,-9 -1,-5 0,-2"/>
    <!-- Right upper arm: mirror -->
    <path d="M0,-3 C1,-5 4,-9 7,-11 C8.5,-12.5 9,-14 7.5,-14.5 C6,-15 4.5,-13.5 4,-11.5 C3,-9 1,-5 0,-2"/>
    <!-- Center spike -->
    <path d="M-1,-3 C-0.5,-6 -0.5,-10 0,-13 C0.5,-10 0.5,-6 1,-3 Z"/>
    <!-- Lower left sweep -->
    <path d="M-1,1 C-3,3 -6,5 -8,7.5 C-6.5,5.5 -3.5,3.5 0,2"/>
    <!-- Lower right sweep -->
    <path d="M1,1 C3,3 6,5 8,7.5 C6.5,5.5 3.5,3.5 0,2"/>
    <!-- Bottom arc -->
    <path d="M-8,8 Q0,11.5 8,8 Q0,10 -8,8 Z"/>
  </g>
</svg>
