<svg xmlns="http://www.w3.org/2000/svg" viewBox="0 0 32 32">
  <rect width="32" height="32" rx="4" fill="#004539"/>
  <g stroke="#ddad75" stroke-linecap="round" stroke-linejoin="round" fill="none">
    <!-- Left upper arm -->
    <path stroke-width="1.8" d="M16,19 C15,17 12,13 9,9 C7.5,7 6,5 6.5,3 C7,1.5 9,1 10.5,2 C12,3.5 13,6 14,10 C15,13 15.5,16 16,18"/>
    <!-- Right upper arm -->
    <path stroke-width="1.8" d="M16,19 C17,17 20,13 23,9 C24.5,7 26,5 25.5,3 C25,1.5 23,1 21.5,2 C20,3.5 19,6 18,10 C17,13 16.5,16 16,18"/>
    <!-- Center spike -->
    <path stroke-width="1.3" d="M16,18 L16,2"/>
    <!-- Lower left -->
    <path stroke-width="1.6" d="M16,21 C13,24 10,26 7,29"/>
    <!-- Lower right -->
    <path stroke-width="1.6" d="M16,21 C19,24 22,26 25,29"/>
    <!-- Bottom arc -->
    <path stroke-width="1.6" d="M6.5,29.5 Q16,33 25.5,29.5"/>
  </g>
</svg>
