<svg xmlns="http://www.w3.org/2000/svg" viewBox="0 0 216 226" fill="none">
  <g transform="translate(0,226) scale(0.1,-0.1)" fill="#ddad75" stroke="none">
    <path d="M1342 1995 c10 -16 22 -40 27 -52 6 -12 22 -40 37 -62 25 -39 26 -41 11
-88 -8 -26 -18 -59 -21 -73 -3 -14 -12 -50 -21 -80 -72 -242 -65 -333 31 -432
26 -28 54 -43 107 -58 40 -12 90 -28 112 -36 23 -8 51 -14 63 -14 12 0 30 -4
40 -9 9 -5 50 -20 91 -33 41 -12 78 -30 82 -38 5 -8 26 -46 49 -84 22 -37 40
-75 40 -83 0 -16 -21 -14 -120 13 -133 37 -158 43 -200 55 -46 12 -82 22 -209
60 -124 38 -227 131 -275 249 -10 25 -22 55 -27 68 -13 34 -11 200 3 225 6 12
15 40 19 62 8 43 49 209 68 268 20 66 29 101 36 140 7 46 29 47 57 2z m-487
-2 c3 -16 14 -64 25 -108 11 -44 27 -105 34 -135 8 -30 21 -82 31 -115 60
-207 58 -313 -8 -435 -17 -30 -34 -56 -38 -58 -5 -2 -9 -9 -9 -16 0 -22 -98
-100 -160 -127 -55 -25 -91 -37 -150 -49 -30 -7 -66 -16 -79 -22 -13 -5 -51
-15 -85 -23 -34 -7 -77 -18 -96 -24 -111 -32 -161 -43 -168 -37 -3 4 15 49 41
99 l47 92 107 33 c60 18 133 40 163 49 30 8 63 19 72 24 10 5 30 9 44 9 49 0
120 60 165 140 18 32 19 215 1 247 -7 13 -17 42 -21 65 -5 24 -21 87 -35 140
l-26 98 21 37 c11 21 29 52 40 68 10 17 23 40 29 53 14 32 48 29 55 -5z m-316
-222 c137 -207 135 -204 135 -298 0 -63 -4 -87 -17 -101 -9 -10 -17 -25 -17
-33 0 -16 -59 -67 -110 -95 -32 -17 -54 -19 -255 -16 -121 2 -224 7 -229 12
-9 9 -1 30 38 98 8 13 19 29 25 35 6 6 11 18 11 27 0 9 11 27 24 39 28 26 46
25 161 -14 129 -43 170 -49 199 -30 20 13 26 26 26 54 0 42 -13 58 -138 170
-65 58 -82 79 -82 101 0 15 7 33 15 40 8 7 15 17 15 22 0 5 21 42 46 81 42 64
48 70 58 53 6 -10 49 -75 95 -145z m1211 98 c19 -33 47 -84 62 -112 l28 -52
-115 -110 c-106 -101 -116 -113 -115 -146 0 -23 7 -42 20 -54 18 -16 26 -17
78 -6 31 7 68 18 82 23 28 11 169 48 186 48 6 0 23 -25 39 -55 15 -31 41 -74
57 -96 51 -71 47 -73 -152 -82 -248 -11 -282 -6 -354 48 -113 84 -143 210 -79
325 14 25 33 53 41 63 8 9 20 26 26 37 6 10 38 59 71 107 33 48 63 96 67 105
12 29 21 22 58 -43z m-545 -946 c11 -6 41 -21 67 -32 35 -15 101 -74 262 -237
119 -119 216 -220 216 -225 0 -5 -51 -9 -113 -9 l-113 0 -140 138 c-77 75
-149 145 -161 155 -34 30 -128 50 -195 42 -78 -9 -121 -40 -283 -204 l-130
-131 -112 0 c-61 0 -114 4 -117 8 -3 5 93 106 213 225 177 176 227 221 272
240 30 13 65 29 79 35 31 15 227 11 255 -5z m-30 -339 c53 -24 145 -114 145
-140 0 -13 15 -46 96 -206 33 -68 45 -101 38 -108 -7 -7 -56 -10 -128 -8
l-118 3 -14 40 c-7 22 -14 51 -14 64 0 13 -7 47 -15 75 -7 28 -19 73 -26 100
-10 41 -18 51 -46 62 -57 24 -83 0 -103 -96 -33 -158 -49 -220 -63 -237 -6 -9
-44 -13 -124 -13 -126 0 -137 6 -110 57 15 27 108 221 131 273 16 36 97 115
142 139 57 30 140 28 209 -5z"/>
  </g>
</svg>
